<svg xmlns="http://www.w3.org/2000/svg" xmlns:xlink="http://www.w3.org/1999/xlink" width="900" zoomAndPan="magnify" viewBox="0 0 675 675.000002" height="900" preserveAspectRatio="xMidYMid meet" version="1.0"><defs><clipPath id="id1"><path d="M 440 0 L 674.5 0 L 674.5 240 L 440 240 Z M 440 0 " clip-rule="nonzero"/></clipPath><clipPath id="id2"><path d="M 0.5 435 L 235 435 L 235 674 L 0.5 674 Z M 0.5 435 " clip-rule="nonzero"/></clipPath></defs><path fill="#ffffff" d="M 193.910156 249.378906 C 196.679688 246.722656 199.324219 243.949219 201.847656 241.054688 C 204.371094 238.164062 206.761719 235.164062 209.015625 232.058594 C 211.269531 228.949219 213.382812 225.75 215.351562 222.453125 C 217.320312 219.160156 219.140625 215.785156 220.804688 212.324219 C 222.472656 208.867188 223.984375 205.34375 225.335938 201.75 C 226.691406 198.160156 227.878906 194.511719 228.90625 190.816406 C 229.933594 187.117188 230.792969 183.378906 231.488281 179.605469 C 232.179688 175.828125 232.703125 172.03125 233.058594 168.207031 L 155.136719 168.207031 C 155.527344 172.011719 156.074219 175.796875 156.789062 179.554688 C 157.5 183.3125 158.375 187.035156 159.40625 190.71875 C 160.441406 194.402344 161.628906 198.03125 162.976562 201.613281 C 164.320312 205.195312 165.820312 208.710938 167.46875 212.164062 C 169.117188 215.617188 170.910156 218.992188 172.851562 222.289062 C 174.789062 225.585938 176.867188 228.792969 179.082031 231.914062 C 181.296875 235.03125 183.644531 238.050781 186.121094 240.964844 C 188.59375 243.882812 191.191406 246.6875 193.910156 249.378906 Z M 193.910156 249.378906 " fill-opacity="1" fill-rule="nonzero"/><path fill="#ffffff" d="M 359.769531 324.253906 L 359.769531 63.648438 C 359.777344 62.488281 359.722656 61.332031 359.617188 60.179688 C 359.507812 59.023438 359.34375 57.875 359.125 56.738281 C 358.902344 55.597656 358.628906 54.472656 358.296875 53.363281 C 357.964844 52.25 357.582031 51.160156 357.144531 50.085938 C 356.707031 49.011719 356.21875 47.960938 355.679688 46.933594 C 355.140625 45.90625 354.550781 44.910156 353.914062 43.941406 C 353.273438 42.972656 352.589844 42.039062 351.863281 41.136719 C 351.132812 40.234375 350.363281 39.371094 349.546875 38.542969 C 348.734375 37.714844 347.882812 36.933594 346.992188 36.1875 C 346.101562 35.445312 345.179688 34.746094 344.21875 34.09375 C 343.261719 33.441406 342.273438 32.835938 341.253906 32.28125 C 340.238281 31.726562 339.195312 31.21875 338.128906 30.765625 C 337.0625 30.3125 335.972656 29.910156 334.867188 29.5625 C 333.761719 29.214844 332.640625 28.921875 331.507812 28.683594 C 330.371094 28.445312 329.226562 28.261719 328.074219 28.136719 C 326.921875 28.011719 325.765625 27.941406 324.605469 27.925781 L 64.03125 27.925781 C 62.863281 27.925781 61.695312 27.984375 60.53125 28.097656 C 59.367188 28.210938 58.210938 28.382812 57.0625 28.609375 C 55.914062 28.835938 54.78125 29.121094 53.660156 29.460938 C 52.542969 29.796875 51.441406 30.191406 50.359375 30.640625 C 49.28125 31.085938 48.222656 31.585938 47.191406 32.136719 C 46.160156 32.6875 45.15625 33.289062 44.183594 33.941406 C 43.210938 34.589844 42.273438 35.285156 41.371094 36.027344 C 40.464844 36.769531 39.601562 37.554688 38.773438 38.382812 C 37.945312 39.210938 37.164062 40.078125 36.421875 40.980469 C 35.679688 41.886719 34.984375 42.824219 34.335938 43.796875 C 33.683594 44.773438 33.085938 45.773438 32.535156 46.804688 C 31.984375 47.839844 31.484375 48.894531 31.039062 49.976562 C 30.59375 51.058594 30.199219 52.160156 29.863281 53.277344 C 29.523438 54.398438 29.242188 55.53125 29.015625 56.679688 C 28.789062 57.828125 28.617188 58.984375 28.503906 60.148438 C 28.390625 61.3125 28.335938 62.480469 28.339844 63.648438 L 28.339844 324.253906 C 28.347656 325.414062 28.417969 326.570312 28.539062 327.722656 C 28.664062 328.875 28.84375 330.019531 29.082031 331.15625 C 29.316406 332.292969 29.605469 333.414062 29.953125 334.519531 C 30.300781 335.628906 30.699219 336.714844 31.152344 337.78125 C 31.605469 338.851562 32.109375 339.894531 32.664062 340.910156 C 33.21875 341.929688 33.820312 342.917969 34.472656 343.878906 C 35.125 344.835938 35.824219 345.761719 36.566406 346.652344 C 37.308594 347.542969 38.09375 348.398438 38.917969 349.210938 C 39.746094 350.023438 40.609375 350.796875 41.511719 351.527344 C 42.414062 352.253906 43.347656 352.9375 44.316406 353.578125 C 45.285156 354.214844 46.285156 354.804688 47.308594 355.34375 C 48.335938 355.882812 49.386719 356.371094 50.460938 356.808594 C 51.535156 357.242188 52.628906 357.628906 53.742188 357.957031 C 54.855469 358.285156 55.980469 358.5625 57.117188 358.78125 C 58.257812 359 59.402344 359.160156 60.558594 359.269531 C 61.714844 359.375 62.871094 359.425781 64.03125 359.417969 L 324.546875 359.417969 C 325.699219 359.414062 326.847656 359.351562 327.992188 359.234375 C 329.136719 359.117188 330.273438 358.941406 331.398438 358.714844 C 332.527344 358.484375 333.640625 358.203125 334.742188 357.867188 C 335.84375 357.527344 336.925781 357.140625 337.988281 356.695312 C 339.046875 356.253906 340.085938 355.761719 341.101562 355.214844 C 342.117188 354.671875 343.101562 354.082031 344.058594 353.441406 C 345.015625 352.800781 345.9375 352.117188 346.828125 351.386719 C 347.714844 350.65625 348.570312 349.882812 349.382812 349.070312 C 350.199219 348.257812 350.96875 347.40625 351.703125 346.519531 C 352.433594 345.628906 353.121094 344.707031 353.761719 343.753906 C 354.402344 342.796875 354.996094 341.8125 355.542969 340.800781 C 356.085938 339.785156 356.582031 338.75 357.027344 337.6875 C 357.472656 336.625 357.863281 335.546875 358.203125 334.445312 C 358.539062 333.347656 358.824219 332.230469 359.054688 331.105469 C 359.285156 329.976562 359.460938 328.839844 359.582031 327.695312 C 359.699219 326.550781 359.765625 325.402344 359.769531 324.253906 Z M 287.390625 287.328125 C 288.3125 287.347656 289.222656 287.453125 290.121094 287.644531 C 291.023438 287.835938 291.898438 288.113281 292.746094 288.476562 C 293.59375 288.835938 294.398438 289.273438 295.160156 289.792969 C 295.925781 290.308594 296.628906 290.894531 297.28125 291.546875 C 297.929688 292.199219 298.511719 292.90625 299.027344 293.671875 C 299.539062 294.4375 299.976562 295.246094 300.332031 296.09375 C 300.691406 296.941406 300.964844 297.816406 301.152344 298.71875 C 301.339844 299.621094 301.441406 300.535156 301.457031 301.453125 C 301.460938 302.378906 301.375 303.296875 301.199219 304.207031 C 301.023438 305.117188 300.761719 306 300.410156 306.855469 C 300.058594 307.710938 299.625 308.527344 299.113281 309.296875 C 298.601562 310.066406 298.015625 310.78125 297.363281 311.4375 C 296.710938 312.09375 295.996094 312.675781 295.226562 313.191406 C 294.457031 313.707031 293.644531 314.140625 292.789062 314.492188 C 291.933594 314.84375 291.050781 315.109375 290.140625 315.289062 C 289.234375 315.464844 288.316406 315.554688 287.390625 315.550781 C 279.066406 315.578125 270.789062 314.960938 262.5625 313.695312 C 254.332031 312.433594 246.253906 310.542969 238.320312 308.019531 C 230.386719 305.5 222.695312 302.378906 215.25 298.65625 C 207.804688 294.9375 200.6875 290.664062 193.910156 285.835938 C 187.191406 290.664062 180.140625 294.9375 172.75 298.660156 C 165.363281 302.378906 157.730469 305.5 149.851562 308.023438 C 141.972656 310.546875 133.945312 312.4375 125.773438 313.699219 C 117.597656 314.960938 109.375 315.578125 101.101562 315.550781 C 100.175781 315.554688 99.257812 315.46875 98.347656 315.289062 C 97.4375 315.109375 96.554688 314.84375 95.699219 314.492188 C 94.839844 314.140625 94.027344 313.707031 93.257812 313.191406 C 92.484375 312.679688 91.773438 312.09375 91.117188 311.4375 C 90.460938 310.785156 89.878906 310.070312 89.363281 309.300781 C 88.847656 308.527344 88.414062 307.714844 88.0625 306.859375 C 87.710938 306 87.445312 305.117188 87.265625 304.207031 C 87.089844 303.300781 87.003906 302.382812 87.007812 301.453125 C 87.023438 300.53125 87.125 299.621094 87.320312 298.71875 C 87.511719 297.820312 87.785156 296.945312 88.144531 296.09375 C 88.507812 295.246094 88.945312 294.441406 89.457031 293.675781 C 89.972656 292.914062 90.554688 292.203125 91.207031 291.550781 C 91.859375 290.898438 92.566406 290.316406 93.328125 289.796875 C 94.09375 289.28125 94.898438 288.84375 95.746094 288.480469 C 96.59375 288.121094 97.46875 287.84375 98.367188 287.648438 C 99.269531 287.453125 100.179688 287.347656 101.101562 287.328125 C 107.308594 287.320312 113.480469 286.878906 119.625 286.007812 C 125.769531 285.132812 131.820312 283.835938 137.785156 282.117188 C 143.746094 280.398438 149.558594 278.269531 155.226562 275.738281 C 160.890625 273.203125 166.351562 270.289062 171.609375 266.992188 C 168.382812 263.679688 165.304688 260.238281 162.375 256.664062 C 159.441406 253.089844 156.667969 249.398438 154.054688 245.585938 C 151.4375 241.777344 148.988281 237.859375 146.707031 233.839844 C 144.425781 229.820312 142.320312 225.710938 140.386719 221.511719 C 138.457031 217.3125 136.707031 213.039062 135.140625 208.691406 C 133.574219 204.339844 132.199219 199.933594 131.007812 195.46875 C 129.816406 191 128.820312 186.492188 128.015625 181.941406 C 127.210938 177.386719 126.601562 172.8125 126.1875 168.207031 L 101.21875 168.207031 C 100.320312 168.167969 99.433594 168.039062 98.554688 167.828125 C 97.679688 167.617188 96.832031 167.328125 96.015625 166.953125 C 95.195312 166.582031 94.417969 166.132812 93.683594 165.613281 C 92.949219 165.09375 92.269531 164.507812 91.648438 163.855469 C 91.027344 163.203125 90.472656 162.5 89.984375 161.742188 C 89.496094 160.984375 89.085938 160.1875 88.75 159.355469 C 88.417969 158.519531 88.164062 157.65625 87.992188 156.773438 C 87.820312 155.890625 87.738281 154.996094 87.738281 154.097656 C 87.738281 153.195312 87.820312 152.304688 87.992188 151.421875 C 88.164062 150.535156 88.417969 149.675781 88.75 148.839844 C 89.085938 148.003906 89.496094 147.207031 89.984375 146.453125 C 90.472656 145.695312 91.027344 144.992188 91.648438 144.339844 C 92.269531 143.6875 92.949219 143.101562 93.683594 142.582031 C 94.417969 142.058594 95.195312 141.613281 96.015625 141.238281 C 96.832031 140.867188 97.679688 140.574219 98.554688 140.363281 C 99.433594 140.152344 100.320312 140.027344 101.21875 139.988281 L 179.871094 139.988281 L 179.871094 85.863281 C 179.890625 84.941406 180 84.035156 180.191406 83.136719 C 180.382812 82.238281 180.660156 81.367188 181.019531 80.519531 C 181.378906 79.675781 181.8125 78.871094 182.328125 78.105469 C 182.839844 77.34375 183.417969 76.636719 184.066406 75.984375 C 184.710938 75.332031 185.414062 74.746094 186.175781 74.226562 C 186.933594 73.707031 187.734375 73.265625 188.578125 72.898438 C 189.417969 72.535156 190.289062 72.25 191.183594 72.050781 C 192.082031 71.851562 192.988281 71.734375 193.910156 71.707031 C 194.839844 71.707031 195.757812 71.796875 196.671875 71.976562 C 197.585938 72.15625 198.46875 72.421875 199.328125 72.777344 C 200.1875 73.132812 201.003906 73.566406 201.777344 74.085938 C 202.550781 74.601562 203.269531 75.1875 203.925781 75.84375 C 204.582031 76.503906 205.167969 77.21875 205.6875 77.992188 C 206.203125 78.765625 206.636719 79.582031 206.992188 80.441406 C 207.347656 81.300781 207.617188 82.1875 207.796875 83.097656 C 207.976562 84.011719 208.0625 84.933594 208.0625 85.863281 L 208.0625 139.988281 L 287.183594 139.988281 C 288.082031 140.027344 288.972656 140.152344 289.847656 140.363281 C 290.722656 140.574219 291.570312 140.867188 292.390625 141.238281 C 293.207031 141.613281 293.984375 142.058594 294.71875 142.582031 C 295.453125 143.101562 296.132812 143.6875 296.753906 144.339844 C 297.375 144.992188 297.929688 145.695312 298.417969 146.453125 C 298.90625 147.207031 299.316406 148.003906 299.652344 148.839844 C 299.988281 149.675781 300.238281 150.535156 300.410156 151.421875 C 300.582031 152.304688 300.664062 153.195312 300.664062 154.097656 C 300.664062 154.996094 300.582031 155.890625 300.410156 156.773438 C 300.238281 157.65625 299.988281 158.519531 299.652344 159.355469 C 299.316406 160.1875 298.90625 160.984375 298.417969 161.742188 C 297.929688 162.5 297.375 163.203125 296.753906 163.855469 C 296.132812 164.507812 295.453125 165.09375 294.71875 165.613281 C 293.984375 166.132812 293.207031 166.582031 292.390625 166.953125 C 291.570312 167.328125 290.722656 167.617188 289.847656 167.828125 C 288.972656 168.039062 288.082031 168.167969 287.183594 168.207031 L 261.867188 168.207031 C 261.496094 172.8125 260.929688 177.390625 260.164062 181.945312 C 259.398438 186.496094 258.4375 191.011719 257.28125 195.480469 C 256.121094 199.949219 254.773438 204.363281 253.230469 208.714844 C 251.6875 213.070312 249.960938 217.347656 248.046875 221.550781 C 246.132812 225.753906 244.042969 229.863281 241.769531 233.886719 C 239.5 237.90625 237.058594 241.820312 234.445312 245.628906 C 231.832031 249.4375 229.0625 253.125 226.128906 256.691406 C 223.195312 260.261719 220.113281 263.691406 216.882812 266.992188 C 222.125 270.320312 227.574219 273.261719 233.234375 275.8125 C 238.898438 278.363281 244.710938 280.5 250.675781 282.222656 C 256.644531 283.941406 262.699219 285.230469 268.851562 286.085938 C 275 286.941406 281.179688 287.355469 287.390625 287.328125 Z M 287.390625 287.328125 " fill-opacity="1" fill-rule="nonzero"/><path fill="#ffffff" d="M 611.234375 314.613281 L 388.019531 314.613281 L 388.019531 324.253906 C 388.011719 326.328125 387.898438 328.398438 387.6875 330.460938 C 387.472656 332.523438 387.160156 334.574219 386.746094 336.605469 C 386.335938 338.636719 385.824219 340.648438 385.214844 342.628906 C 384.605469 344.613281 383.902344 346.5625 383.101562 348.476562 C 382.300781 350.390625 381.410156 352.261719 380.429688 354.089844 C 379.445312 355.914062 378.375 357.691406 377.21875 359.414062 C 376.066406 361.136719 374.828125 362.796875 373.507812 364.398438 C 372.191406 366 370.796875 367.535156 369.328125 369 C 367.859375 370.464844 366.324219 371.855469 364.71875 373.171875 C 363.117188 374.488281 361.453125 375.722656 359.726562 376.875 C 358 378.027344 356.226562 379.09375 354.394531 380.070312 C 352.566406 381.050781 350.695312 381.9375 348.777344 382.734375 C 346.863281 383.53125 344.914062 384.230469 342.929688 384.835938 C 340.945312 385.441406 338.9375 385.949219 336.902344 386.359375 C 334.867188 386.769531 332.820312 387.078125 330.753906 387.285156 C 328.691406 387.496094 326.621094 387.601562 324.546875 387.609375 L 315.375 387.609375 L 315.375 610.878906 C 315.375 612.035156 315.433594 613.1875 315.546875 614.335938 C 315.660156 615.488281 315.828125 616.628906 316.054688 617.761719 C 316.28125 618.894531 316.5625 620.015625 316.898438 621.121094 C 317.234375 622.226562 317.625 623.3125 318.070312 624.378906 C 318.511719 625.445312 319.007812 626.488281 319.554688 627.503906 C 320.097656 628.523438 320.695312 629.511719 321.339844 630.472656 C 321.980469 631.429688 322.671875 632.355469 323.40625 633.246094 C 324.140625 634.140625 324.917969 634.992188 325.738281 635.808594 C 326.554688 636.621094 327.414062 637.394531 328.308594 638.125 C 329.203125 638.855469 330.132812 639.539062 331.09375 640.179688 C 332.058594 640.820312 333.050781 641.410156 334.070312 641.949219 C 335.089844 642.492188 336.136719 642.980469 337.207031 643.417969 C 338.273438 643.855469 339.363281 644.242188 340.46875 644.574219 C 341.578125 644.902344 342.695312 645.179688 343.832031 645.398438 C 344.964844 645.621094 346.105469 645.785156 347.257812 645.890625 C 348.40625 646 349.5625 646.050781 350.714844 646.046875 L 611.234375 646.046875 C 612.382812 646.046875 613.53125 645.988281 614.679688 645.875 C 615.824219 645.761719 616.964844 645.59375 618.09375 645.371094 C 619.222656 645.144531 620.339844 644.863281 621.441406 644.53125 C 622.542969 644.195312 623.625 643.808594 624.691406 643.367188 C 625.753906 642.925781 626.792969 642.4375 627.808594 641.894531 C 628.824219 641.351562 629.8125 640.757812 630.769531 640.117188 C 631.726562 639.480469 632.652344 638.792969 633.542969 638.0625 C 634.429688 637.332031 635.285156 636.558594 636.097656 635.746094 C 636.914062 634.929688 637.683594 634.078125 638.414062 633.1875 C 639.144531 632.296875 639.832031 631.375 640.472656 630.417969 C 641.109375 629.457031 641.703125 628.472656 642.246094 627.457031 C 642.789062 626.441406 643.28125 625.402344 643.722656 624.335938 C 644.160156 623.273438 644.550781 622.191406 644.882812 621.085938 C 645.21875 619.984375 645.496094 618.871094 645.722656 617.738281 C 645.945312 616.609375 646.117188 615.472656 646.230469 614.328125 C 646.339844 613.179688 646.398438 612.03125 646.398438 610.878906 L 646.398438 350.277344 C 646.414062 349.113281 646.375 347.953125 646.273438 346.796875 C 646.175781 345.636719 646.019531 344.488281 645.808594 343.34375 C 645.597656 342.203125 645.328125 341.074219 645.003906 339.957031 C 644.679688 338.84375 644.300781 337.746094 643.867188 336.667969 C 643.433594 335.589844 642.949219 334.535156 642.410156 333.503906 C 641.871094 332.472656 641.285156 331.472656 640.648438 330.5 C 640.011719 329.527344 639.328125 328.589844 638.597656 327.6875 C 637.867188 326.78125 637.09375 325.917969 636.277344 325.089844 C 635.460938 324.261719 634.605469 323.476562 633.710938 322.734375 C 632.820312 321.992188 631.890625 321.292969 630.925781 320.644531 C 629.964844 319.992188 628.972656 319.390625 627.949219 318.839844 C 626.925781 318.285156 625.878906 317.785156 624.808594 317.335938 C 623.734375 316.886719 622.644531 316.492188 621.53125 316.152344 C 620.421875 315.8125 619.292969 315.527344 618.15625 315.300781 C 617.015625 315.070312 615.867188 314.898438 614.710938 314.785156 C 613.554688 314.667969 612.394531 314.613281 611.234375 314.613281 Z M 557.429688 590.074219 C 556.558594 590.394531 555.667969 590.625 554.75 590.773438 C 553.835938 590.921875 552.917969 590.980469 551.988281 590.949219 C 551.0625 590.917969 550.148438 590.796875 549.246094 590.589844 C 548.34375 590.382812 547.464844 590.089844 546.621094 589.714844 C 545.773438 589.335938 544.96875 588.882812 544.210938 588.351562 C 543.453125 587.820312 542.75 587.21875 542.109375 586.554688 C 541.464844 585.886719 540.890625 585.164062 540.386719 584.382812 C 539.882812 583.605469 539.460938 582.789062 539.113281 581.925781 L 522.175781 535.039062 L 440.066406 535.039062 L 422.894531 581.925781 C 422.632812 582.585938 422.328125 583.222656 421.972656 583.839844 C 421.621094 584.453125 421.222656 585.035156 420.78125 585.589844 C 420.339844 586.144531 419.859375 586.664062 419.339844 587.148438 C 418.824219 587.632812 418.273438 588.074219 417.6875 588.476562 C 417.101562 588.878906 416.492188 589.234375 415.855469 589.542969 C 415.21875 589.851562 414.5625 590.113281 413.882812 590.328125 C 413.207031 590.539062 412.519531 590.699219 411.820312 590.808594 C 411.121094 590.921875 410.414062 590.976562 409.707031 590.980469 C 407.953125 590.980469 406.253906 590.675781 404.605469 590.074219 C 403.753906 589.757812 402.941406 589.359375 402.164062 588.882812 C 401.390625 588.40625 400.671875 587.859375 400.003906 587.238281 C 399.339844 586.617188 398.742188 585.941406 398.210938 585.203125 C 397.679688 584.460938 397.226562 583.679688 396.847656 582.851562 C 396.472656 582.023438 396.183594 581.164062 395.976562 580.28125 C 395.769531 579.394531 395.652344 578.496094 395.625 577.585938 C 395.597656 576.675781 395.65625 575.773438 395.808594 574.878906 C 395.957031 573.980469 396.195312 573.105469 396.519531 572.257812 L 467.789062 379.050781 C 468.023438 378.371094 468.308594 377.710938 468.640625 377.070312 C 468.976562 376.433594 469.359375 375.824219 469.785156 375.242188 C 470.214844 374.664062 470.683594 374.117188 471.195312 373.609375 C 471.707031 373.101562 472.253906 372.632812 472.835938 372.207031 C 473.417969 371.78125 474.027344 371.402344 474.667969 371.070312 C 475.308594 370.738281 475.96875 370.453125 476.652344 370.222656 C 477.332031 369.992188 478.03125 369.8125 478.738281 369.683594 C 479.449219 369.558594 480.164062 369.488281 480.886719 369.46875 C 481.628906 369.476562 482.363281 369.535156 483.09375 369.652344 C 483.828125 369.769531 484.546875 369.9375 485.25 370.164062 C 485.957031 370.390625 486.640625 370.667969 487.304688 370.996094 C 487.96875 371.324219 488.605469 371.703125 489.210938 372.128906 C 489.816406 372.554688 490.390625 373.023438 490.925781 373.535156 C 491.460938 374.046875 491.953125 374.597656 492.40625 375.183594 C 492.855469 375.769531 493.261719 376.386719 493.621094 377.035156 C 493.980469 377.6875 494.285156 378.359375 494.542969 379.050781 L 565.664062 572.257812 C 565.992188 573.113281 566.230469 573.996094 566.378906 574.898438 C 566.53125 575.804688 566.589844 576.714844 566.5625 577.632812 C 566.53125 578.550781 566.410156 579.457031 566.199219 580.347656 C 565.988281 581.242188 565.6875 582.105469 565.304688 582.9375 C 564.921875 583.769531 564.460938 584.558594 563.921875 585.300781 C 563.378906 586.042969 562.773438 586.722656 562.09375 587.34375 C 561.417969 587.964844 560.6875 588.511719 559.902344 588.984375 C 559.117188 589.460938 558.292969 589.851562 557.429688 590.160156 Z M 557.429688 590.074219 " fill-opacity="1" fill-rule="nonzero"/><path fill="#ffffff" d="M 450.46875 506.996094 L 511.421875 506.996094 L 480.738281 424.269531 Z M 450.46875 506.996094 " fill-opacity="1" fill-rule="nonzero"/><g clip-path="url(#id1)"><path fill="#ffffff" d="M 674.648438 220.074219 C 674.644531 216.46875 674.558594 212.867188 674.378906 209.265625 C 674.203125 205.664062 673.933594 202.070312 673.582031 198.480469 C 673.226562 194.890625 672.785156 191.3125 672.253906 187.746094 C 671.726562 184.179688 671.109375 180.628906 670.402344 177.09375 C 669.699219 173.554688 668.910156 170.039062 668.03125 166.539062 C 667.15625 163.042969 666.195312 159.570312 665.148438 156.117188 C 664.097656 152.667969 662.96875 149.246094 661.753906 145.851562 C 660.539062 142.453125 659.238281 139.089844 657.859375 135.761719 C 656.480469 132.429688 655.019531 129.132812 653.476562 125.875 C 651.933594 122.613281 650.3125 119.394531 648.613281 116.214844 C 646.914062 113.035156 645.136719 109.898438 643.28125 106.804688 C 641.429688 103.710938 639.5 100.667969 637.496094 97.667969 C 635.492188 94.671875 633.417969 91.722656 631.269531 88.828125 C 629.121094 85.929688 626.902344 83.089844 624.617188 80.300781 C 622.328125 77.511719 619.972656 74.785156 617.550781 72.113281 C 615.132812 69.441406 612.644531 66.828125 610.097656 64.277344 C 607.546875 61.730469 604.9375 59.242188 602.265625 56.820312 C 599.59375 54.398438 596.863281 52.042969 594.074219 49.757812 C 591.289062 47.46875 588.445312 45.25 585.550781 43.101562 C 582.65625 40.953125 579.707031 38.878906 576.710938 36.875 C 573.710938 34.871094 570.667969 32.941406 567.574219 31.085938 C 564.480469 29.234375 561.34375 27.457031 558.164062 25.753906 C 554.984375 24.054688 551.765625 22.433594 548.507812 20.890625 C 545.246094 19.347656 541.953125 17.886719 538.621094 16.503906 C 535.289062 15.125 531.925781 13.828125 528.53125 12.609375 C 525.136719 11.394531 521.714844 10.265625 518.265625 9.214844 C 514.8125 8.167969 511.339844 7.207031 507.84375 6.328125 C 504.34375 5.453125 500.828125 4.660156 497.292969 3.957031 C 493.753906 3.25 490.203125 2.632812 486.636719 2.105469 C 483.070312 1.574219 479.492188 1.128906 475.902344 0.777344 C 472.316406 0.421875 468.71875 0.15625 465.117188 -0.0234375 C 461.515625 -0.203125 457.914062 -0.292969 454.308594 -0.292969 C 453.386719 -0.273438 452.472656 -0.167969 451.574219 0.0273438 C 450.671875 0.222656 449.796875 0.5 448.949219 0.863281 C 448.101562 1.226562 447.296875 1.664062 446.53125 2.183594 C 445.769531 2.703125 445.0625 3.289062 444.414062 3.941406 C 443.765625 4.59375 443.183594 5.304688 442.667969 6.070312 C 442.15625 6.835938 441.71875 7.644531 441.363281 8.496094 C 441.003906 9.34375 440.734375 10.222656 440.542969 11.125 C 440.355469 12.027344 440.253906 12.9375 440.242188 13.859375 C 440.238281 14.785156 440.324219 15.703125 440.5 16.609375 C 440.679688 17.515625 440.945312 18.398438 441.296875 19.253906 C 441.648438 20.109375 442.082031 20.921875 442.59375 21.691406 C 443.105469 22.460938 443.691406 23.171875 444.34375 23.824219 C 444.996094 24.476562 445.710938 25.0625 446.480469 25.574219 C 447.25 26.085938 448.058594 26.519531 448.914062 26.871094 C 449.769531 27.222656 450.652344 27.488281 451.558594 27.667969 C 452.464844 27.84375 453.382812 27.929688 454.308594 27.925781 C 457.359375 27.925781 460.40625 27.996094 463.453125 28.140625 C 466.5 28.285156 469.542969 28.503906 472.578125 28.792969 C 475.613281 29.082031 478.640625 29.445312 481.660156 29.878906 C 484.679688 30.3125 487.6875 30.820312 490.683594 31.394531 C 493.675781 31.972656 496.65625 32.621094 499.621094 33.34375 C 502.585938 34.0625 505.53125 34.851562 508.457031 35.714844 C 511.382812 36.574219 514.285156 37.503906 517.167969 38.503906 C 520.050781 39.5 522.90625 40.570312 525.738281 41.703125 C 528.570312 42.839844 531.371094 44.042969 534.144531 45.3125 C 536.917969 46.578125 539.660156 47.914062 542.371094 49.316406 C 545.078125 50.714844 547.753906 52.179688 550.394531 53.707031 C 553.035156 55.234375 555.636719 56.824219 558.199219 58.476562 C 560.765625 60.128906 563.289062 61.839844 565.769531 63.613281 C 568.253906 65.382812 570.691406 67.214844 573.085938 69.105469 C 575.480469 70.992188 577.832031 72.9375 580.132812 74.9375 C 582.433594 76.9375 584.6875 78.992188 586.894531 81.101562 C 589.097656 83.210938 591.25 85.371094 593.351562 87.582031 C 595.453125 89.792969 597.5 92.050781 599.492188 94.363281 C 601.484375 96.671875 603.421875 99.027344 605.304688 101.425781 C 607.183594 103.828125 609.007812 106.273438 610.769531 108.761719 C 612.535156 111.25 614.238281 113.777344 615.882812 116.347656 C 617.523438 118.917969 619.105469 121.523438 620.625 124.171875 C 622.144531 126.816406 623.597656 129.496094 624.988281 132.210938 C 626.378906 134.925781 627.707031 137.671875 628.964844 140.449219 C 630.226562 143.226562 631.417969 146.03125 632.546875 148.867188 C 633.671875 151.703125 634.730469 154.5625 635.71875 157.445312 C 636.707031 160.332031 637.628906 163.238281 638.476562 166.167969 C 639.328125 169.097656 640.109375 172.046875 640.820312 175.011719 C 641.53125 177.976562 642.167969 180.960938 642.734375 183.957031 C 643.304688 186.953125 643.800781 189.960938 644.222656 192.984375 C 644.648438 196.003906 645 199.03125 645.277344 202.070312 C 645.558594 205.105469 645.765625 208.148438 645.898438 211.195312 L 597.695312 211.195312 C 596.761719 211.1875 595.835938 211.269531 594.921875 211.445312 C 594.007812 211.617188 593.117188 211.882812 592.253906 212.234375 C 591.390625 212.585938 590.570312 213.019531 589.796875 213.535156 C 589.019531 214.050781 588.300781 214.640625 587.640625 215.300781 C 586.984375 215.957031 586.394531 216.675781 585.878906 217.453125 C 585.363281 218.230469 584.929688 219.046875 584.578125 219.910156 C 584.226562 220.773438 583.960938 221.664062 583.785156 222.578125 C 583.613281 223.496094 583.53125 224.417969 583.539062 225.351562 C 583.558594 226.273438 583.660156 227.1875 583.855469 228.085938 C 584.046875 228.988281 584.324219 229.863281 584.6875 230.714844 C 585.050781 231.5625 585.488281 232.367188 586.007812 233.132812 C 586.527344 233.894531 587.113281 234.601562 587.765625 235.253906 C 588.421875 235.902344 589.132812 236.484375 589.898438 236.996094 C 590.664062 237.511719 591.472656 237.945312 592.324219 238.300781 C 593.175781 238.660156 594.050781 238.929688 594.953125 239.117188 C 595.859375 239.304688 596.769531 239.40625 597.695312 239.417969 L 660.492188 239.417969 C 661.421875 239.421875 662.339844 239.335938 663.25 239.160156 C 664.160156 238.984375 665.042969 238.722656 665.902344 238.371094 C 666.761719 238.019531 667.578125 237.589844 668.351562 237.078125 C 669.125 236.566406 669.839844 235.980469 670.496094 235.328125 C 671.152344 234.675781 671.742188 233.964844 672.257812 233.191406 C 672.773438 232.421875 673.210938 231.609375 673.566406 230.753906 C 673.925781 229.898438 674.191406 229.015625 674.375 228.105469 C 674.554688 227.195312 674.648438 226.277344 674.648438 225.351562 C 674.554688 224.453125 674.371094 223.574219 674.089844 222.714844 C 674.355469 221.851562 674.542969 220.972656 674.648438 220.074219 Z M 674.648438 220.074219 " fill-opacity="1" fill-rule="nonzero"/></g><g clip-path="url(#id2)"><path fill="#ffffff" d="M 220.515625 646.074219 C 217.472656 646.066406 214.433594 645.988281 211.390625 645.835938 C 208.351562 645.683594 205.316406 645.460938 202.289062 645.164062 C 199.261719 644.871094 196.238281 644.5 193.226562 644.0625 C 190.214844 643.625 187.21875 643.113281 184.230469 642.53125 C 181.242188 641.949219 178.269531 641.300781 175.3125 640.578125 C 172.355469 639.855469 169.417969 639.0625 166.5 638.199219 C 163.582031 637.339844 160.683594 636.40625 157.808594 635.410156 C 154.933594 634.410156 152.085938 633.34375 149.261719 632.207031 C 146.4375 631.074219 143.640625 629.871094 140.875 628.605469 C 138.109375 627.335938 135.371094 626.003906 132.667969 624.609375 C 129.964844 623.210938 127.296875 621.75 124.660156 620.226562 C 122.027344 618.703125 119.429688 617.117188 116.871094 615.472656 C 114.3125 613.824219 111.792969 612.117188 109.3125 610.351562 C 106.835938 608.585938 104.402344 606.761719 102.007812 604.878906 C 99.617188 602.996094 97.273438 601.058594 94.972656 599.066406 C 92.671875 597.070312 90.421875 595.023438 88.21875 592.925781 C 86.015625 590.824219 83.863281 588.671875 81.761719 586.46875 C 79.664062 584.269531 77.617188 582.015625 75.621094 579.71875 C 73.628906 577.417969 71.691406 575.074219 69.808594 572.679688 C 67.925781 570.289062 66.101562 567.855469 64.335938 565.375 C 62.566406 562.898438 60.859375 560.378906 59.214844 557.820312 C 57.566406 555.261719 55.980469 552.664062 54.457031 550.03125 C 52.933594 547.394531 51.472656 544.726562 50.074219 542.023438 C 48.675781 539.320312 47.34375 536.585938 46.078125 533.816406 C 44.808594 531.050781 43.609375 528.253906 42.472656 525.429688 C 41.335938 522.605469 40.269531 519.757812 39.269531 516.882812 C 38.269531 514.007812 37.339844 511.113281 36.476562 508.195312 C 35.617188 505.273438 34.824219 502.335938 34.101562 499.378906 C 33.378906 496.425781 32.726562 493.453125 32.144531 490.464844 C 31.5625 487.476562 31.050781 484.476562 30.613281 481.464844 C 30.171875 478.457031 29.804688 475.433594 29.507812 472.40625 C 29.210938 469.375 28.988281 466.34375 28.835938 463.304688 L 77.570312 463.304688 C 78.492188 463.289062 79.402344 463.183594 80.300781 462.996094 C 81.203125 462.804688 82.078125 462.53125 82.925781 462.171875 C 83.773438 461.8125 84.582031 461.378906 85.34375 460.863281 C 86.109375 460.351562 86.816406 459.769531 87.472656 459.121094 C 88.125 458.46875 88.707031 457.765625 89.222656 457.003906 C 89.742188 456.238281 90.179688 455.433594 90.542969 454.589844 C 90.902344 453.742188 91.183594 452.867188 91.375 451.96875 C 91.570312 451.066406 91.675781 450.15625 91.695312 449.238281 C 91.699219 448.308594 91.609375 447.386719 91.433594 446.476562 C 91.253906 445.566406 90.988281 444.679688 90.636719 443.824219 C 90.28125 442.964844 89.847656 442.148438 89.332031 441.375 C 88.816406 440.601562 88.230469 439.886719 87.574219 439.230469 C 86.917969 438.574219 86.203125 437.988281 85.429688 437.472656 C 84.660156 436.960938 83.84375 436.523438 82.984375 436.171875 C 82.125 435.816406 81.242188 435.550781 80.328125 435.375 C 79.417969 435.195312 78.5 435.109375 77.570312 435.113281 L 14.214844 435.113281 C 13.296875 435.121094 12.394531 435.21875 11.496094 435.410156 C 10.601562 435.597656 9.734375 435.875 8.894531 436.234375 C 8.050781 436.59375 7.253906 437.035156 6.5 437.554688 C 5.746094 438.070312 5.050781 438.660156 4.414062 439.316406 C 3.777344 439.972656 3.207031 440.6875 2.710938 441.453125 C 2.214844 442.222656 1.800781 443.035156 1.464844 443.886719 C 1.128906 444.738281 0.878906 445.613281 0.714844 446.511719 C 0.554688 447.414062 0.480469 448.320312 0.5 449.238281 C 0.5625 449.933594 0.691406 450.617188 0.878906 451.289062 C 0.699219 452.160156 0.570312 453.039062 0.5 453.925781 C 0.5 457.527344 0.59375 461.128906 0.769531 464.730469 C 0.949219 468.328125 1.21875 471.921875 1.574219 475.507812 C 1.925781 479.09375 2.371094 482.667969 2.902344 486.234375 C 3.429688 489.796875 4.046875 493.347656 4.753906 496.882812 C 5.457031 500.417969 6.246094 503.929688 7.125 507.425781 C 8 510.921875 8.964844 514.394531 10.011719 517.84375 C 11.058594 521.289062 12.1875 524.710938 13.402344 528.105469 C 14.617188 531.496094 15.914062 534.859375 17.292969 538.1875 C 18.671875 541.515625 20.132812 544.808594 21.671875 548.066406 C 23.214844 551.324219 24.835938 554.542969 26.53125 557.722656 C 28.230469 560.898438 30.007812 564.035156 31.859375 567.125 C 33.710938 570.214844 35.640625 573.261719 37.640625 576.257812 C 39.640625 579.253906 41.714844 582.199219 43.863281 585.09375 C 46.007812 587.992188 48.222656 590.832031 50.507812 593.617188 C 52.792969 596.402344 55.144531 599.132812 57.566406 601.804688 C 59.984375 604.476562 62.46875 607.085938 65.015625 609.632812 C 67.5625 612.183594 70.167969 614.667969 72.839844 617.089844 C 75.507812 619.511719 78.234375 621.867188 81.019531 624.15625 C 83.800781 626.441406 86.640625 628.660156 89.535156 630.808594 C 92.425781 632.957031 95.371094 635.035156 98.367188 637.039062 C 101.359375 639.042969 104.402344 640.972656 107.492188 642.828125 C 110.582031 644.683594 113.714844 646.460938 116.890625 648.164062 C 120.070312 649.867188 123.285156 651.488281 126.542969 653.03125 C 129.796875 654.578125 133.089844 656.039062 136.417969 657.421875 C 139.746094 658.804688 143.105469 660.105469 146.496094 661.324219 C 149.890625 662.539062 153.308594 663.675781 156.753906 664.722656 C 160.203125 665.773438 163.671875 666.738281 167.167969 667.621094 C 170.664062 668.5 174.175781 669.292969 177.710938 670 C 181.246094 670.707031 184.792969 671.328125 188.355469 671.863281 C 191.921875 672.398438 195.496094 672.84375 199.082031 673.203125 C 202.667969 673.558594 206.261719 673.832031 209.859375 674.011719 C 213.457031 674.195312 217.058594 674.289062 220.664062 674.292969 C 221.128906 674.304688 221.59375 674.292969 222.054688 674.253906 C 222.519531 674.21875 222.980469 674.15625 223.4375 674.074219 C 223.894531 673.988281 224.347656 673.882812 224.792969 673.753906 C 225.238281 673.625 225.679688 673.472656 226.109375 673.296875 C 226.542969 673.125 226.960938 672.929688 227.375 672.710938 C 227.785156 672.492188 228.183594 672.257812 228.570312 672 C 228.957031 671.742188 229.332031 671.464844 229.691406 671.171875 C 230.050781 670.875 230.394531 670.5625 230.722656 670.230469 C 231.046875 669.902344 231.359375 669.554688 231.652344 669.195312 C 231.941406 668.832031 232.214844 668.457031 232.472656 668.066406 C 232.726562 667.679688 232.957031 667.277344 233.171875 666.863281 C 233.386719 666.449219 233.578125 666.027344 233.75 665.59375 C 233.917969 665.164062 234.066406 664.722656 234.191406 664.273438 C 234.320312 663.828125 234.421875 663.375 234.5 662.917969 C 234.582031 662.457031 234.636719 661.996094 234.671875 661.535156 C 234.703125 661.070312 234.714844 660.605469 234.699219 660.140625 C 234.703125 659.210938 234.613281 658.292969 234.433594 657.378906 C 234.25 656.46875 233.984375 655.582031 233.625 654.726562 C 233.269531 653.867188 232.832031 653.054688 232.3125 652.28125 C 231.796875 651.511719 231.207031 650.796875 230.546875 650.144531 C 229.886719 649.488281 229.171875 648.90625 228.394531 648.394531 C 227.621094 647.882812 226.800781 647.453125 225.941406 647.101562 C 225.078125 646.753906 224.191406 646.492188 223.28125 646.320312 C 222.367188 646.148438 221.445312 646.066406 220.515625 646.074219 Z M 220.515625 646.074219 " fill-opacity="1" fill-rule="nonzero"/></g></svg>